<svg width="48" height="34" viewBox="0 0 48 34" fill="none" xmlns="http://www.w3.org/2000/svg">
<g clip-path="url(#clip0_54_250)">
<path d="M33.055 13.7405H27.3121V8.08202C27.3121 6.28315 25.8331 4.82584 24.0074 4.82584C22.1817 4.82584 20.7026 6.28315 20.7026 8.08202V13.7405H14.9597C13.134 13.7405 11.6549 15.1978 11.6549 16.9967C11.6549 18.7955 13.134 20.2529 14.9597 20.2529H20.7026V25.9113C20.7026 27.7102 22.1817 29.1675 24.0074 29.1675C25.8331 29.1675 27.3121 27.7102 27.3121 25.9113V20.2529H33.055C34.8807 20.2529 36.3598 18.7955 36.3598 16.9967C36.3598 15.1978 34.8807 13.7405 33.055 13.7405Z" fill="white"/>
<path d="M2.43651 16.4613L1.2547 16.0322C0.257207 15.67 -0.245451 14.5775 0.118152 13.6053L3.58637 4.33256C3.95397 3.34973 5.06282 2.85446 6.04947 3.21272L7.23128 3.64184L2.43651 16.4613Z" fill="white"/>
<path d="M6.42959 23.5503L4.78155 22.9519C3.3829 22.4441 2.67084 20.9236 3.18628 19.5455L9.84701 1.73707C10.3625 0.358978 11.9056 -0.342608 13.3043 0.165252L14.9523 0.763661L6.42959 23.5503Z" fill="white"/>
<path d="M45.5635 17.5535L46.7453 17.9827C47.7428 18.3449 48.2454 19.4374 47.8818 20.4096L44.4136 29.6823C44.046 30.6652 42.9372 31.1604 41.9505 30.8022L40.7687 30.373L45.5675 17.5429L45.5635 17.5535Z" fill="white"/>
<path d="M41.5918 10.4497L43.2398 11.0481C44.6385 11.5559 45.3505 13.0764 44.8351 14.4545L38.1743 32.2629C37.6589 33.641 36.1158 34.3426 34.7171 33.8347L33.0691 33.2363L41.5918 10.4497Z" fill="white"/>
</g>
<defs>
<clipPath id="clip0_54_250">
<rect width="48" height="34" fill="white"/>
</clipPath>
</defs>
</svg>
