<svg width="66" height="32" viewBox="0 0 66 32" fill="none" xmlns="http://www.w3.org/2000/svg">
<g clip-path="url(#clip0_4_484)">
<path d="M28.2594 23.829V23.3611H29.1611V21.0366H21.844V23.3611H22.8301V23.829H24.8407V24.2721H22.4809V27.8075H24.8407V28.3099H21.9764V29.3642H24.8407V30.1549H26.2373V29.3642H29.2935V28.3099H26.2373V27.8075H28.7045V24.2721H26.2373V23.829H28.2594ZM23.6627 25.1469H24.8426V25.6263H23.6627V25.1469ZM23.6627 26.9213V26.4419H24.8426V26.9213H23.6627ZM27.4767 26.9213H26.2373V26.4419H27.4767V26.9213ZM27.4767 25.1469V25.6263H26.2373V25.1469H27.4767ZM23.1562 22.8339V22.0795H27.7779V22.8339H26.2373V22.4137H24.8407V22.8339H23.1562Z" fill="#26AFA7"/>
<path d="M18.7878 21.3003C18.9643 21.5008 19.1446 21.7186 19.3288 21.9535C19.513 22.1884 19.6876 22.4214 19.8525 22.6487C20.0175 22.876 20.148 23.0747 20.2439 23.2427L21.3758 22.4768C21.2147 22.2285 20.994 21.9363 20.7139 21.5963C20.4338 21.2564 20.1557 20.9431 19.8832 20.6566L18.7878 21.3041V21.3003Z" fill="#26AFA7"/>
<path d="M26.646 30.4548C26.1011 30.4701 25.6157 30.4796 25.1898 30.4796C24.4589 30.472 23.8162 30.43 23.2579 30.3536C22.6996 30.2772 22.2315 30.1091 21.8497 29.8512C21.5735 29.6641 21.3413 29.4024 21.1476 29.072C21.4066 28.3462 21.5984 27.5134 21.7231 26.5737L21.1207 26.3349L20.9039 26.3712H20.1192C20.1634 26.3139 20.2075 26.2528 20.2535 26.1917C20.4531 25.9205 20.6583 25.6397 20.8675 25.3532C21.0766 25.0648 21.2723 24.784 21.4564 24.509C21.6406 24.234 21.8018 23.9914 21.938 23.7832L21.0708 23.3993L20.854 23.4833H18.4962V24.6217H20.0195C19.9389 24.7382 19.8564 24.8566 19.772 24.975C19.5878 25.2348 19.4171 25.4678 19.2598 25.676C19.1024 25.8842 18.9816 26.0313 18.8933 26.1191C18.7801 26.2394 18.6727 26.3273 18.5691 26.3827C18.4655 26.4381 18.3638 26.4782 18.2679 26.503C18.3082 26.5832 18.36 26.6959 18.4252 26.8449C18.4885 26.992 18.5499 27.141 18.6056 27.288C18.6612 27.4351 18.7015 27.5612 18.7264 27.6662C18.7821 27.6108 18.8856 27.5669 19.0334 27.5344C19.1811 27.502 19.3288 27.4867 19.4727 27.4867H20.313C20.1672 28.1494 19.9638 28.7454 19.701 29.2668C19.3231 30.0136 18.8377 30.5904 18.2449 30.9972C18.3408 31.0526 18.4502 31.1386 18.5691 31.2551C18.69 31.3716 18.807 31.4919 18.924 31.6199C19.041 31.7479 19.1274 31.8586 19.183 31.9561C19.7375 31.5492 20.2171 30.98 20.618 30.2543C20.6679 30.3211 20.7197 30.386 20.7715 30.4472C21.0766 30.7986 21.4353 31.0641 21.8478 31.2436C22.2603 31.4232 22.7399 31.5473 23.2867 31.6142C23.8315 31.681 24.4589 31.7154 25.1649 31.7154C25.6387 31.7154 26.1184 31.7116 26.6037 31.7039C27.0891 31.6963 27.5668 31.681 28.0349 31.6619C28.505 31.6428 28.9481 31.6237 29.3645 31.6084C29.3894 31.4728 29.4239 31.32 29.4719 31.1539C29.5199 30.9858 29.5736 30.8234 29.635 30.663C29.6944 30.5025 29.7578 30.3746 29.8211 30.2791C29.3645 30.3268 28.8561 30.365 28.2978 30.3937C27.7395 30.4223 27.1889 30.4433 26.6421 30.4605L26.646 30.4548Z" fill="#26AFA7"/>
<path d="M40.484 23.3745H39.4154C39.4308 22.5742 39.4384 21.7357 39.4384 20.859H38.0552C38.0552 21.7472 38.0514 22.5856 38.0456 23.3745H36.9118V22.7041H34.5885V22.1177C34.7477 22.1005 34.907 22.0833 35.0643 22.0642C35.6935 21.9878 36.2614 21.898 36.7679 21.7949L36.1425 20.7291C35.8048 20.8017 35.4307 20.8666 35.0163 20.9259C34.6038 20.9851 34.1664 21.0405 33.7041 21.0882C33.2417 21.136 32.7755 21.178 32.3016 21.2143C31.8278 21.2506 31.3673 21.2811 30.9184 21.304C30.9913 21.4473 31.0565 21.6173 31.1179 21.814C31.1774 22.0107 31.2196 22.1826 31.2446 22.3354C31.847 22.3201 32.4762 22.2896 33.1343 22.2457C33.1822 22.2418 33.2302 22.238 33.2782 22.2342V22.706H30.8954V23.7488H33.2782V24.2168H31.2081V27.9432H33.2782V28.4111H31.1601V29.4291H33.2782V30.1416C33.0326 30.1607 32.7909 30.1798 32.5568 30.197C31.9064 30.2447 31.329 30.2848 30.8244 30.3173L30.9932 31.5282C31.5227 31.4728 32.106 31.4136 32.7448 31.3544C33.3818 31.2952 34.0494 31.2284 34.742 31.1577C35.095 31.1214 35.448 31.0851 35.7971 31.0469C35.8662 31.1023 35.9353 31.1653 36.0063 31.2341C36.131 31.3582 36.2499 31.4881 36.3669 31.6237C36.484 31.7593 36.578 31.8873 36.6489 32.0076C37.2034 31.576 37.6562 31.0775 38.0092 30.5102C38.3622 29.9429 38.6365 29.3145 38.8341 28.6231C39.0298 27.9317 39.1718 27.1811 39.2562 26.3712C39.3118 25.8384 39.3521 25.2806 39.3809 24.7H40.4744C40.461 25.4277 40.4437 26.0771 40.4245 26.6405C40.3958 27.4561 40.3651 28.1208 40.3286 28.6346C40.2922 29.1503 40.25 29.5456 40.202 29.8207C40.154 30.0957 40.0984 30.2829 40.0332 30.3784C39.9775 30.451 39.9161 30.5026 39.8528 30.535C39.7876 30.5675 39.7089 30.5828 39.613 30.5828C39.4998 30.5828 39.3368 30.579 39.12 30.5713C38.9032 30.5637 38.6672 30.5465 38.4101 30.5236C38.5233 30.7146 38.6173 30.9438 38.6921 31.2073C38.7689 31.4709 38.8111 31.702 38.8188 31.9026C39.1085 31.9102 39.3847 31.9121 39.6495 31.9083C39.9142 31.9045 40.1387 31.8854 40.3229 31.8548C40.5224 31.8147 40.697 31.7536 40.8466 31.6696C40.9943 31.5855 41.1382 31.4442 41.2744 31.2436C41.3704 31.108 41.4529 30.8846 41.5219 30.5732C41.5891 30.2619 41.6428 29.8283 41.6792 29.2725C41.7157 28.7167 41.7502 28.01 41.7809 27.1524C41.8135 26.2929 41.8442 25.2501 41.8768 24.02V23.3859H40.4936L40.484 23.3745ZM32.3496 25.1106H33.2762V25.6493H32.3496V25.1106ZM34.5866 25.6512V25.1126H35.5247V25.6512H34.5866ZM35.5266 26.5011V27.0397H34.5885V26.5011H35.5266ZM32.3496 27.0397V26.5011H33.2762V27.0397H32.3496ZM37.9324 25.9205C37.8672 26.652 37.7521 27.3224 37.5833 27.9336C37.4144 28.5448 37.1746 29.1006 36.8619 29.5991C36.8082 29.6851 36.7487 29.771 36.6892 29.8532C36.0005 29.9143 35.3098 29.9735 34.6173 30.0308C34.6077 30.0308 34.5981 30.0308 34.5866 30.0327V29.4253H36.7775V28.4073H34.5866V27.9393H36.7161V24.213H34.5866V23.745H36.8964V24.6924H38.0111C37.9919 25.1183 37.967 25.527 37.9324 25.9205Z" fill="#26AFA7"/>
<path d="M54.1092 25.04C53.9806 25.0648 53.8003 25.0858 53.5682 25.1068C53.336 25.1259 53.1307 25.1374 52.9542 25.1374H51.1605C50.984 25.1374 50.8708 25.1011 50.8228 25.0304C50.7748 24.9578 50.7499 24.8394 50.7499 24.6713V23.2102H52.4343V24.6236H53.9384V21.9152H49.6333C49.5758 21.7662 49.5086 21.6058 49.4261 21.4301C49.2746 21.1073 49.1326 20.8131 49.0041 20.5496L47.4635 20.9698C47.5921 21.2486 47.7206 21.558 47.8491 21.898C47.8511 21.9037 47.853 21.9095 47.8549 21.9152H43.3944V24.8509H44.8141V23.2102H46.8362C46.8074 23.489 46.7671 23.7412 46.7096 23.9646C46.6328 24.2683 46.4832 24.5243 46.2587 24.7305C46.0342 24.9387 45.6908 25.1087 45.2304 25.2405C44.768 25.3723 44.1407 25.4735 43.3464 25.5461C43.4347 25.6416 43.5249 25.7619 43.6169 25.9052C43.709 26.0484 43.7934 26.1936 43.8702 26.3368C43.9469 26.4801 43.9968 26.6119 44.0198 26.7322C44.9426 26.6119 45.6812 26.4514 46.2338 26.2471C46.7882 26.0427 47.2103 25.7887 47.5038 25.4812C47.7973 25.1737 48.0007 24.8069 48.1177 24.3791C48.2117 24.0334 48.2789 23.6437 48.3173 23.2102H49.3149V24.6599C49.3149 25.0915 49.3667 25.4353 49.4722 25.6893C49.5758 25.9453 49.7619 26.1286 50.0266 26.2413C50.2914 26.354 50.6636 26.4094 51.1451 26.4094H53.0099C53.2343 26.4094 53.4627 26.4037 53.6967 26.3922C53.9288 26.3808 54.1053 26.354 54.2262 26.3139C54.2013 26.1382 54.1802 25.9281 54.1591 25.6855C54.1399 25.441 54.1207 25.229 54.1053 25.0438L54.1092 25.04Z" fill="#26AFA7"/>
<path d="M49.5105 28.3711H52.8084V27.0398H44.7699V28.3711H47.9834V30.3001H43.4097V31.6524H53.9883V30.3001H49.5105V28.3711Z" fill="#26AFA7"/>
<path d="M64.5439 21.1207H61.246V25.4946H64.5439V30.1913C64.5439 30.2944 64.5247 30.367 64.4844 30.4071C64.4441 30.4472 64.3674 30.4663 64.2561 30.4663C64.1832 30.4663 64.0642 30.4682 63.8954 30.472C63.7266 30.4759 63.5367 30.4759 63.3237 30.472C63.2777 30.472 63.2316 30.4682 63.1856 30.4682V26.1898H58.5275V31.4137H59.8397V30.8025H62.846C62.8594 30.8349 62.8709 30.8693 62.8844 30.9037C62.9477 31.0832 63.0052 31.2609 63.0532 31.4366C63.1012 31.6123 63.1338 31.7728 63.1491 31.916C63.6709 31.916 64.1103 31.9007 64.4671 31.8683C64.824 31.8358 65.1271 31.7613 65.3765 31.641C65.6163 31.5206 65.7813 31.3487 65.8695 31.1253C65.9578 30.9018 66.0019 30.5981 66.0019 30.2142V21.1207H64.5458H64.5439ZM61.8234 27.2556V27.9738H59.8378V27.2556H61.8234ZM59.8378 29.7367V28.9937H61.8234V29.7367H59.8378ZM64.5439 22.1636V22.7862H62.6177V22.1636H64.5439ZM62.6177 24.4651V23.7584H64.5439V24.4651H62.6177Z" fill="#26AFA7"/>
<path d="M60.4402 25.4698V21.1207H55.7955V31.916H57.2286V25.4698H60.4421H60.4402ZM57.2267 24.4403V23.7565H59.08V24.4403H57.2267ZM59.08 22.1636V22.7862H57.2267V22.1636H59.08Z" fill="#26AFA7"/>
<path d="M13.8861 12.0502H13.7019C13.0707 12.0502 12.5316 12.2736 12.0846 12.7187C11.6376 13.1637 11.4131 13.7004 11.4131 14.3288V19.3826C11.4131 19.5583 11.3249 19.6443 11.1503 19.6443H5.07441C4.89983 19.6443 4.81158 19.5564 4.81158 19.3826V14.3288C4.81158 13.7004 4.58712 13.1637 4.14011 12.7187C3.6931 12.2736 3.154 12.0502 2.52282 12.0502H2.28684C1.65566 12.0502 1.11656 12.2736 0.669554 12.7187C0.222545 13.1637 0 13.7004 0 14.3288V29.7233C0 30.3517 0.222545 30.8884 0.669554 31.3334C1.11656 31.7785 1.65566 32.0019 2.28684 32.0019H2.52282C3.154 32.0019 3.6931 31.7785 4.14011 31.3334C4.58712 30.8884 4.81158 30.3517 4.81158 29.7233V24.0678C4.81158 23.894 4.89983 23.8062 5.07441 23.8062H11.1503C11.3249 23.8062 11.4131 23.894 11.4131 24.0678V29.7233C11.4131 30.3517 11.6376 30.8884 12.0846 31.3334C12.5316 31.7785 13.0707 32.0019 13.7019 32.0019H13.8861C14.5345 32.0019 15.0774 31.7785 15.5168 31.3334C15.9542 30.8884 16.1748 30.3517 16.1748 29.7233V14.3288C16.1748 13.7004 15.9561 13.1637 15.5168 12.7187C15.0774 12.2736 14.5345 12.0502 13.8861 12.0502Z" fill="#26AFA7"/>
<path d="M20.5893 12.0329V9.40669H23.2272C24.0656 9.40669 24.7466 8.72864 24.7466 7.89398C24.7466 7.05931 24.0656 6.38126 23.2272 6.38126H20.5893V3.75502C20.5893 2.92036 19.9082 2.24231 19.0698 2.24231C18.2314 2.24231 17.5504 2.92036 17.5504 3.75502V6.38126H14.9125C14.0741 6.38126 13.393 7.05931 13.393 7.89398C13.393 8.72864 14.0741 9.40669 14.9125 9.40669H17.5504V12.0329C17.5504 12.8676 18.2314 13.5456 19.0698 13.5456C19.9082 13.5456 20.5893 12.8676 20.5893 12.0329Z" fill="#26AFA7"/>
<path d="M8.61211 7.44324L9.15313 7.64188L11.3594 1.67888L10.8184 1.48024C10.3599 1.31216 9.85146 1.54518 9.68263 2.00167L8.08644 6.31252C7.91762 6.76901 8.15167 7.27516 8.61019 7.44324H8.61211Z" fill="#26AFA7"/>
<path d="M10.2256 10.6616L10.9834 10.9404L14.901 0.353332L14.1431 0.0744731C13.5024 -0.160456 12.7906 0.166153 12.5546 0.80409L9.49272 9.07626C9.25675 9.7142 9.58481 10.4228 10.2256 10.6577V10.6616Z" fill="#26AFA7"/>
<path d="M29.5276 8.34476L28.9865 8.14612L26.7803 14.1091L27.3213 14.3078C27.7798 14.4758 28.2882 14.2428 28.457 13.7863L30.0532 9.47547C30.222 9.01898 29.988 8.51284 29.5295 8.34476H29.5276Z" fill="#26AFA7"/>
<path d="M23.9946 15.7116C24.6354 15.9465 25.3472 15.6199 25.5831 14.982L28.645 6.70982C28.881 6.07188 28.553 5.36328 27.9122 5.12835L27.1544 4.84949L23.2368 15.4347L23.9946 15.7135V15.7116Z" fill="#26AFA7"/>
<path d="M56.7203 19.2718H58.5064C58.6215 19.2718 58.7193 19.2317 58.7999 19.1515C58.8805 19.0712 58.9208 18.9738 58.9208 18.8592C58.9208 18.7446 58.8805 18.6472 58.7999 18.567C58.7193 18.4868 58.6215 18.4467 58.5064 18.4467H57.292C57.2555 18.4467 57.2383 18.4295 57.2383 18.3932V17.6349C57.2383 17.5986 57.2555 17.5814 57.292 17.5814H58.2052C58.3165 17.5814 58.4124 17.5413 58.4949 17.4611C58.5755 17.3809 58.6157 17.2835 58.6157 17.1689C58.6157 17.0543 58.5755 16.9569 58.4949 16.8767C58.4143 16.7964 58.3184 16.7563 58.2052 16.7563H57.292C57.2555 16.7563 57.2383 16.7391 57.2383 16.7028V16.0535C57.2383 16.0172 57.2555 16 57.292 16H58.4527C58.5639 16 58.6599 15.9599 58.7385 15.8796C58.8172 15.7994 58.8575 15.7039 58.8575 15.5912C58.8575 15.4785 58.8172 15.385 58.7385 15.3028C58.6599 15.2226 58.5639 15.1825 58.4527 15.1825H56.7203C56.5917 15.1825 56.4805 15.2283 56.3884 15.32C56.2963 15.4117 56.2502 15.5206 56.2502 15.6504V18.8096C56.2502 18.9394 56.2963 19.0483 56.3884 19.14C56.4805 19.2317 56.5917 19.2775 56.7203 19.2775V19.2718Z" fill="#26AFA7"/>
<path d="M60.4613 17.3866L60.9908 17.6063C61.0042 17.6139 61.0292 17.6235 61.0618 17.6387C61.2498 17.717 61.3803 17.7839 61.4551 17.8374C61.5299 17.8909 61.5683 17.9692 61.5683 18.0685C61.5683 18.1831 61.5241 18.2729 61.434 18.334C61.3438 18.397 61.2114 18.4276 61.0349 18.4276C60.8335 18.4276 60.6205 18.3684 60.398 18.2499C60.3155 18.2041 60.2253 18.1793 60.1275 18.1793C60.1025 18.1793 60.0776 18.1812 60.0527 18.185C59.9299 18.1984 59.832 18.2538 59.7553 18.3454C59.6862 18.4237 59.6536 18.5154 59.6536 18.6186V18.6663C59.667 18.7886 59.7265 18.8802 59.8263 18.9394C60.1927 19.1572 60.5898 19.268 61.0138 19.268C61.4915 19.268 61.8733 19.1438 62.1553 18.8936C62.4374 18.6453 62.5793 18.3435 62.5793 17.9883C62.5793 17.4554 62.3088 17.0791 61.7697 16.8652L61.2575 16.6608C61.244 16.6532 61.2229 16.6475 61.198 16.6398C61.1117 16.6035 61.0484 16.5787 61.0062 16.5615C60.9639 16.5462 60.9141 16.5214 60.8546 16.4908C60.7951 16.4603 60.7529 16.4335 60.728 16.4068C60.703 16.382 60.68 16.3514 60.6608 16.3189C60.6416 16.2846 60.6321 16.2464 60.6321 16.2043C60.6321 16.0974 60.6762 16.0133 60.7625 15.9522C60.8488 15.8911 60.9697 15.8605 61.1232 15.8605C61.3035 15.8605 61.4723 15.8987 61.6316 15.9732C61.7026 16.0095 61.7812 16.0267 61.8637 16.0267C61.8925 16.0267 61.9213 16.0229 61.9501 16.0152C62.0613 16.0019 62.1496 15.9522 62.2148 15.8701C62.28 15.7956 62.3126 15.7096 62.3126 15.6122C62.3126 15.5989 62.3126 15.5836 62.3069 15.5683C62.2954 15.4575 62.2455 15.3735 62.1553 15.3162C61.8426 15.1195 61.4992 15.0201 61.1251 15.0201C60.6934 15.0201 60.3366 15.1386 60.0565 15.3773C59.7764 15.6161 59.6364 15.9083 59.6364 16.2559C59.6364 16.5309 59.715 16.764 59.8704 16.9511C60.0277 17.1402 60.2253 17.2816 60.4671 17.379L60.4613 17.3866Z" fill="#26AFA7"/>
<path d="M63.8839 17.3866L64.4134 17.6063C64.4268 17.6139 64.4518 17.6235 64.4844 17.6387C64.6724 17.717 64.8029 17.7839 64.8777 17.8374C64.9525 17.8909 64.9909 17.9692 64.9909 18.0685C64.9909 18.1831 64.9468 18.2729 64.8566 18.334C64.7664 18.397 64.634 18.4276 64.4575 18.4276C64.2561 18.4276 64.0431 18.3684 63.8206 18.2499C63.7381 18.2041 63.6479 18.1793 63.5501 18.1793C63.5252 18.1793 63.5002 18.1812 63.4753 18.185C63.3525 18.1984 63.2546 18.2538 63.1779 18.3454C63.1088 18.4237 63.0762 18.5154 63.0762 18.6186V18.6663C63.0897 18.7886 63.1472 18.8802 63.2489 18.9394C63.6153 19.1572 64.0124 19.268 64.4364 19.268C64.9141 19.268 65.2959 19.1438 65.5779 18.8936C65.86 18.6453 66.0019 18.3435 66.0019 17.9883C66.0019 17.4554 65.7314 17.0791 65.1923 16.8652L64.6801 16.6608C64.6667 16.6532 64.6456 16.6475 64.6206 16.6398C64.5343 16.6035 64.471 16.5787 64.4288 16.5615C64.3866 16.5462 64.3367 16.5214 64.2772 16.4908C64.2177 16.4603 64.1755 16.4335 64.1506 16.4068C64.1256 16.382 64.1026 16.3514 64.0834 16.3189C64.0642 16.2846 64.0547 16.2464 64.0547 16.2043C64.0547 16.0974 64.0988 16.0133 64.1851 15.9522C64.2714 15.8911 64.3923 15.8605 64.5458 15.8605C64.7261 15.8605 64.895 15.8987 65.0542 15.9732C65.1252 16.0095 65.2038 16.0267 65.2863 16.0267C65.3151 16.0267 65.3439 16.0229 65.3727 16.0152C65.4839 16.0019 65.5722 15.9522 65.6374 15.8701C65.7026 15.7956 65.7353 15.7096 65.7353 15.6122C65.7353 15.5989 65.7353 15.5836 65.7295 15.5683C65.718 15.4575 65.6681 15.3735 65.5779 15.3162C65.2652 15.1195 64.9218 15.0201 64.5477 15.0201C64.1161 15.0201 63.7592 15.1386 63.4791 15.3773C63.199 15.6161 63.059 15.9083 63.059 16.2559C63.059 16.5309 63.1376 16.764 63.293 16.9511C63.4503 17.1402 63.6479 17.2816 63.8897 17.379L63.8839 17.3866Z" fill="#26AFA7"/>
<path d="M43.6956 19.2719H43.7435C43.874 19.2719 43.9834 19.226 44.0754 19.1343C44.1675 19.0427 44.2136 18.9338 44.2136 18.8039V17.7611C44.2136 17.7248 44.2308 17.7076 44.2673 17.7076H45.2074C45.3225 17.7076 45.4203 17.6675 45.499 17.5872C45.5776 17.507 45.6179 17.4096 45.6179 17.2969C45.6179 17.1842 45.5776 17.0887 45.499 17.0085C45.4203 16.9302 45.3225 16.8901 45.2074 16.8901H44.2673C44.2308 16.8901 44.2136 16.8729 44.2136 16.8366V16.0459C44.2136 16.0096 44.2308 15.9924 44.2673 15.9924H45.4433C45.5546 15.9924 45.6505 15.9523 45.7292 15.8721C45.8078 15.7919 45.8481 15.6964 45.8481 15.5837C45.8481 15.471 45.8078 15.3774 45.7292 15.2953C45.6505 15.215 45.5546 15.1749 45.4433 15.1749H43.6937C43.5651 15.1749 43.4539 15.2208 43.3618 15.3124C43.2697 15.4041 43.2236 15.513 43.2236 15.6429V18.802C43.2236 18.9319 43.2697 19.0408 43.3618 19.1324C43.4539 19.2241 43.5651 19.2699 43.6937 19.2699L43.6956 19.2719Z" fill="#26AFA7"/>
<path d="M47.0319 19.2718H47.0798C47.2103 19.2718 47.3196 19.2259 47.4117 19.1343C47.5038 19.0426 47.5499 18.9337 47.5499 18.8038V15.6447C47.5499 15.5148 47.5038 15.406 47.4117 15.3143C47.3196 15.2226 47.2084 15.1768 47.0798 15.1768H47.0319C46.9033 15.1768 46.792 15.2226 46.7 15.3143C46.6079 15.406 46.5618 15.5148 46.5618 15.6447V18.8038C46.5618 18.9337 46.6079 19.0426 46.7 19.1343C46.792 19.2259 46.9033 19.2718 47.0319 19.2718Z" fill="#26AFA7"/>
<path d="M48.5858 15.9942H49.2381C49.2746 15.9942 49.2918 16.0114 49.2918 16.0477V18.8038C49.2918 18.9337 49.336 19.0426 49.4261 19.1343C49.5163 19.2259 49.6276 19.2718 49.7599 19.2718H49.8079C49.9384 19.2718 50.0477 19.2259 50.1398 19.1343C50.2319 19.0426 50.2779 18.9337 50.2779 18.8038V16.0477C50.2779 16.0114 50.2952 15.9942 50.3317 15.9942H50.9839C51.0952 15.9942 51.1911 15.9541 51.2736 15.8739C51.3542 15.7937 51.3945 15.6982 51.3945 15.5855C51.3945 15.4728 51.3542 15.3792 51.2736 15.2971C51.1931 15.2169 51.0971 15.1768 50.9839 15.1768H48.582C48.4707 15.1768 48.3748 15.2169 48.2961 15.2971C48.2175 15.3773 48.1772 15.4728 48.1772 15.5855C48.1772 15.6982 48.2175 15.7918 48.2961 15.8739C48.3748 15.9541 48.4707 15.9942 48.582 15.9942H48.5858Z" fill="#26AFA7"/>
<path d="M54.8267 15.1768C54.6962 15.1768 54.5869 15.2226 54.4948 15.3143C54.4027 15.406 54.3567 15.5148 54.3567 15.6447V16.5309C54.3567 16.8461 54.4008 17.3465 54.4871 18.0303C54.491 18.0417 54.4871 18.0456 54.4795 18.0456C54.4718 18.0456 54.4641 18.0398 54.4603 18.0303L54.0612 17.1383L53.2574 15.5912C53.1883 15.4652 53.0924 15.3658 52.9677 15.2894C52.843 15.215 52.7087 15.1768 52.5648 15.1768H52.4996C52.3691 15.1768 52.2598 15.2226 52.1677 15.3143C52.0756 15.406 52.0295 15.5148 52.0295 15.6447V18.8038C52.0295 18.9337 52.0756 19.0426 52.1677 19.1343C52.2598 19.2259 52.371 19.2718 52.4996 19.2718C52.6281 19.2718 52.7394 19.2259 52.8315 19.1343C52.9236 19.0426 52.9696 18.9337 52.9696 18.8038V17.9119C52.9696 17.7648 52.9638 17.6101 52.9504 17.4496C52.937 17.2892 52.9178 17.0887 52.8909 16.8537C52.8641 16.6169 52.8487 16.4698 52.8449 16.4125C52.8449 16.4011 52.8487 16.3972 52.8583 16.3972C52.8679 16.3972 52.8737 16.403 52.8775 16.4125L53.2708 17.293L54.0746 18.8573C54.1399 18.9834 54.2339 19.0827 54.3586 19.1591C54.4833 19.2336 54.6176 19.2718 54.7615 19.2718H54.8267C54.9572 19.2718 55.0665 19.2259 55.1586 19.1343C55.2507 19.0426 55.2967 18.9337 55.2967 18.8038V15.6447C55.2967 15.5148 55.2507 15.406 55.1586 15.3143C55.0665 15.2226 54.9552 15.1768 54.8267 15.1768Z" fill="#26AFA7"/>
</g>
<defs>
<clipPath id="clip0_4_484">
<rect width="66" height="32" fill="white"/>
</clipPath>
</defs>
</svg>
