<svg width="478" height="232" viewBox="0 0 478 232" fill="none" xmlns="http://www.w3.org/2000/svg">
<g clip-path="url(#clip0_8_232)">
<path d="M204.667 172.761V169.368H211.197V152.516H158.203V169.368H165.345V172.761H179.907V175.973H162.816V201.605H179.907V205.247H159.162V212.89H179.907V218.623H190.022V212.89H212.156V205.247H190.022V201.605H207.89V175.973H190.022V172.761H204.667ZM171.375 182.315H179.92V185.791H171.375V182.315ZM171.375 195.18V191.704H179.92V195.18H171.375ZM198.998 195.18H190.022V191.704H198.998V195.18ZM198.998 182.315V185.791H190.022V182.315H198.998ZM167.707 165.546V160.076H201.179V165.546H190.022V162.5H179.907V165.546H167.707Z" fill="white"/>
<path d="M136.069 154.427C137.348 155.881 138.654 157.459 139.987 159.162C141.321 160.866 142.586 162.555 143.781 164.203C144.976 165.851 145.92 167.291 146.615 168.509L154.813 162.957C153.646 161.156 152.048 159.038 150.019 156.573C147.991 154.108 145.976 151.837 144.003 149.76L136.069 154.454V154.427Z" fill="white"/>
<path d="M192.981 220.797C189.035 220.908 185.52 220.977 182.435 220.977C177.142 220.922 172.487 220.617 168.444 220.064C164.4 219.51 161.01 218.291 158.245 216.422C156.244 215.065 154.563 213.168 153.16 210.772C155.035 205.51 156.425 199.472 157.328 192.659L152.965 190.929L151.395 191.192H145.712C146.032 190.776 146.351 190.333 146.685 189.89C148.13 187.924 149.616 185.888 151.131 183.811C152.645 181.72 154.063 179.684 155.397 177.69C156.73 175.696 157.898 173.938 158.884 172.428L152.604 169.645L151.034 170.254H133.957V178.507H144.99C144.406 179.352 143.808 180.211 143.197 181.069C141.863 182.952 140.627 184.642 139.487 186.151C138.348 187.661 137.473 188.727 136.833 189.364C136.014 190.236 135.236 190.873 134.485 191.275C133.735 191.676 132.999 191.967 132.304 192.147C132.596 192.729 132.971 193.546 133.443 194.626C133.902 195.692 134.346 196.772 134.749 197.838C135.152 198.905 135.444 199.819 135.625 200.58C136.028 200.179 136.778 199.86 137.848 199.625C138.918 199.389 139.988 199.279 141.03 199.279H147.115C146.059 204.084 144.587 208.404 142.683 212.184C139.946 217.599 136.43 221.781 132.137 224.73C132.832 225.132 133.624 225.755 134.485 226.6C135.361 227.444 136.208 228.317 137.056 229.244C137.903 230.172 138.529 230.975 138.932 231.682C142.947 228.732 146.421 224.605 149.325 219.343C149.686 219.828 150.061 220.299 150.436 220.742C152.645 223.29 155.244 225.215 158.231 226.516C161.218 227.818 164.692 228.718 168.652 229.203C172.598 229.688 177.142 229.937 182.255 229.937C185.687 229.937 189.16 229.909 192.676 229.854C196.191 229.798 199.651 229.688 203.041 229.549C206.445 229.411 209.655 229.272 212.67 229.161C212.85 228.178 213.101 227.07 213.448 225.866C213.795 224.647 214.184 223.47 214.629 222.307C215.06 221.144 215.518 220.216 215.977 219.523C212.67 219.87 208.988 220.147 204.944 220.354C200.901 220.562 196.913 220.714 192.953 220.839L192.981 220.797Z" fill="white"/>
<path d="M293.203 169.465H285.463C285.575 163.663 285.63 157.584 285.63 151.228H275.612C275.612 157.667 275.584 163.746 275.543 169.465H267.331V164.605H250.505V160.353C251.658 160.229 252.811 160.104 253.951 159.966C258.508 159.412 262.621 158.761 266.289 158.013L261.759 150.286C259.314 150.813 256.604 151.283 253.603 151.713C250.616 152.142 247.448 152.544 244.099 152.89C240.751 153.236 237.374 153.541 233.942 153.804C230.51 154.067 227.176 154.288 223.924 154.454C224.452 155.493 224.925 156.725 225.369 158.152C225.8 159.578 226.106 160.824 226.286 161.932C230.649 161.821 235.207 161.6 239.973 161.281C240.32 161.254 240.667 161.226 241.015 161.198V164.618H223.758V172.179H241.015V175.572H226.022V202.588H241.015V205.981H225.675V213.361H241.015V218.527C239.236 218.665 237.485 218.804 235.79 218.928C231.08 219.274 226.898 219.565 223.244 219.801L224.466 228.58C228.301 228.178 232.525 227.749 237.152 227.32C241.765 226.89 246.6 226.406 251.616 225.893C254.173 225.63 256.729 225.367 259.258 225.09C259.758 225.492 260.259 225.949 260.773 226.447C261.676 227.347 262.537 228.289 263.385 229.272C264.232 230.255 264.913 231.183 265.427 232.056C269.443 228.926 272.722 225.312 275.279 221.199C277.835 217.086 279.822 212.531 281.253 207.518C282.671 202.505 283.699 197.063 284.31 191.192C284.713 187.328 285.005 183.285 285.213 179.075H293.133C293.036 184.351 292.911 189.059 292.772 193.144C292.563 199.057 292.341 203.876 292.077 207.601C291.813 211.34 291.507 214.206 291.16 216.2C290.813 218.194 290.41 219.551 289.937 220.244C289.534 220.77 289.09 221.144 288.631 221.379C288.159 221.615 287.589 221.725 286.894 221.725C286.075 221.725 284.894 221.698 283.324 221.642C281.754 221.587 280.044 221.462 278.183 221.296C279.002 222.681 279.683 224.342 280.225 226.253C280.781 228.164 281.087 229.84 281.142 231.294C283.24 231.349 285.241 231.363 287.158 231.335C289.076 231.308 290.702 231.169 292.035 230.948C293.48 230.657 294.745 230.214 295.829 229.605C296.899 228.995 297.941 227.971 298.927 226.517C299.622 225.533 300.219 223.913 300.72 221.656C301.206 219.399 301.595 216.256 301.859 212.226C302.123 208.196 302.373 203.073 302.595 196.855C302.832 190.624 303.054 183.063 303.29 174.146V169.548H293.272L293.203 169.465ZM234.29 182.052H241.001V185.957H234.29V182.052ZM250.491 185.971V182.066H257.285V185.971H250.491ZM257.299 192.133V196.038H250.505V192.133H257.299ZM234.29 196.038V192.133H241.001V196.038H234.29ZM274.723 187.924C274.25 193.227 273.417 198.088 272.194 202.519C270.971 206.95 269.235 210.98 266.97 214.594C266.581 215.217 266.15 215.84 265.719 216.436C260.731 216.879 255.729 217.308 250.713 217.723C250.644 217.723 250.574 217.723 250.491 217.737V213.334H266.358V205.953H250.491V202.56H265.914V175.544H250.491V172.151H267.22V179.02H275.293C275.154 182.108 274.973 185.071 274.723 187.924Z" fill="white"/>
<path d="M391.882 181.54C390.951 181.72 389.645 181.872 387.963 182.025C386.282 182.163 384.795 182.246 383.517 182.246H370.526C369.247 182.246 368.428 181.983 368.08 181.471C367.733 180.945 367.552 180.086 367.552 178.867V168.274H379.752V178.521H390.645V158.886H359.466C359.049 157.805 358.562 156.642 357.965 155.368C356.867 153.028 355.839 150.896 354.908 148.985L343.751 152.031C344.682 154.053 345.613 156.296 346.544 158.761C346.558 158.802 346.572 158.844 346.585 158.886H314.281V180.169H324.563V168.274H339.207C338.999 170.296 338.707 172.124 338.29 173.744C337.735 175.946 336.651 177.801 335.025 179.297C333.399 180.806 330.912 182.038 327.578 182.994C324.229 183.949 319.686 184.683 313.933 185.21C314.572 185.902 315.225 186.774 315.892 187.813C316.559 188.851 317.171 189.904 317.726 190.942C318.282 191.981 318.643 192.936 318.81 193.809C325.493 192.936 330.843 191.773 334.845 190.292C338.86 188.81 341.917 186.968 344.043 184.739C346.169 182.509 347.641 179.851 348.489 176.749C349.17 174.242 349.656 171.417 349.934 168.274H357.159V178.784C357.159 181.914 357.534 184.406 358.298 186.248C359.049 188.104 360.397 189.433 362.314 190.25C364.231 191.067 366.927 191.469 370.415 191.469H383.92C385.546 191.469 387.199 191.427 388.894 191.344C390.576 191.261 391.854 191.067 392.729 190.776C392.549 189.502 392.396 187.979 392.243 186.22C392.104 184.448 391.965 182.911 391.854 181.568L391.882 181.54Z" fill="white"/>
<path d="M358.576 205.69H382.461V196.038H324.243V205.69H347.516V219.676H314.392V229.48H391.006V219.676H358.576V205.69Z" fill="white"/>
<path d="M467.454 153.125H443.569V184.836H467.454V218.886C467.454 219.634 467.315 220.16 467.023 220.451C466.732 220.742 466.176 220.881 465.37 220.881C464.842 220.881 463.98 220.894 462.758 220.922C461.535 220.95 460.159 220.95 458.617 220.922C458.284 220.922 457.95 220.894 457.617 220.894V189.876H423.881V227.749H433.385V223.318H455.157C455.255 223.553 455.338 223.802 455.435 224.052C455.894 225.353 456.311 226.641 456.658 227.915C457.005 229.189 457.242 230.352 457.353 231.391C461.132 231.391 464.314 231.28 466.898 231.045C469.483 230.809 471.678 230.269 473.484 229.397C475.221 228.524 476.416 227.278 477.055 225.658C477.694 224.038 478.014 221.836 478.014 219.053V153.125H467.468H467.454ZM447.752 197.603V202.81H433.371V197.603H447.752ZM433.371 215.591V210.204H447.752V215.591H433.371ZM467.454 160.686V165.2H453.504V160.686H467.454ZM453.504 177.372V172.248H467.454V177.372H453.504Z" fill="white"/>
<path d="M437.734 184.656V153.125H404.095V231.391H414.474V184.656H437.748H437.734ZM414.46 177.192V172.234H427.882V177.192H414.46ZM427.882 160.686V165.2H414.46V160.686H427.882Z" fill="white"/>
<path d="M100.569 87.3635H99.2348C94.6635 87.3635 90.7591 88.9837 87.5217 92.2101C84.2843 95.4366 82.6586 99.3277 82.6586 103.884V140.524C82.6586 141.798 82.0195 142.421 80.7551 142.421H36.7511C35.4867 142.421 34.8475 141.784 34.8475 140.524V103.884C34.8475 99.3277 33.2218 95.4366 29.9844 92.2101C26.747 88.9837 22.8426 87.3635 18.2713 87.3635H16.5623C11.991 87.3635 8.08662 88.9837 4.8492 92.2101C1.61177 95.4366 0 99.3277 0 103.884V215.494C0 220.05 1.61177 223.941 4.8492 227.167C8.08662 230.394 11.991 232.014 16.5623 232.014H18.2713C22.8426 232.014 26.747 230.394 29.9844 227.167C33.2218 223.941 34.8475 220.05 34.8475 215.494V174.492C34.8475 173.232 35.4867 172.595 36.7511 172.595H80.7551C82.0195 172.595 82.6586 173.232 82.6586 174.492V215.494C82.6586 220.05 84.2843 223.941 87.5217 227.167C90.7591 230.394 94.6635 232.014 99.2348 232.014H100.569C105.265 232.014 109.197 230.394 112.379 227.167C115.547 223.941 117.145 220.05 117.145 215.494V103.884C117.145 99.3277 115.561 95.4366 112.379 92.2101C109.197 88.9837 105.265 87.3635 100.569 87.3635Z" fill="white"/>
<path d="M149.116 87.2388V68.1986H168.221C174.293 68.1986 179.226 63.2827 179.226 57.2314C179.226 51.1801 174.293 46.2642 168.221 46.2642H149.116V27.224C149.116 21.1727 144.184 16.2568 138.112 16.2568C132.04 16.2568 127.107 21.1727 127.107 27.224V46.2642H108.002C101.93 46.2642 96.9978 51.1801 96.9978 57.2314C96.9978 63.2827 101.93 68.1986 108.002 68.1986H127.107V87.2388C127.107 93.2902 132.04 98.206 138.112 98.206C144.184 98.206 149.116 93.2902 149.116 87.2388Z" fill="white"/>
<path d="M62.3726 53.9634L66.2908 55.4035L82.2696 12.1718L78.3513 10.7317C75.0305 9.5131 71.3485 11.2025 70.1257 14.512L58.5655 45.7657C57.3428 49.0752 59.0379 52.7448 62.3587 53.9634H62.3726Z" fill="white"/>
<path d="M74.0579 77.2965L79.5462 79.3182L107.919 2.56184L102.431 0.540113C97.7898 -1.16312 92.6349 1.20479 90.9259 5.82984L68.7502 65.8031C67.0412 70.4281 69.4171 75.5655 74.0579 77.2688V77.2965Z" fill="white"/>
<path d="M213.851 60.4995L209.933 59.0593L193.954 102.291L197.872 103.731C201.193 104.95 204.875 103.26 206.098 99.9508L217.658 68.6971C218.881 65.3876 217.186 61.718 213.865 60.4995H213.851Z" fill="white"/>
<path d="M173.779 113.909C178.42 115.612 183.575 113.244 185.284 108.619L207.459 48.6461C209.168 44.0211 206.792 38.8837 202.152 37.1804L196.663 35.1587L168.291 111.901L173.779 113.923V113.909Z" fill="white"/>
<path d="M410.792 139.721H423.728C424.562 139.721 425.27 139.43 425.854 138.848C426.437 138.267 426.729 137.56 426.729 136.73C426.729 135.899 426.437 135.193 425.854 134.611C425.27 134.029 424.562 133.739 423.728 133.739H414.933C414.669 133.739 414.544 133.614 414.544 133.351V127.853C414.544 127.59 414.669 127.466 414.933 127.466H421.547C422.352 127.466 423.047 127.175 423.645 126.593C424.228 126.012 424.52 125.305 424.52 124.475C424.52 123.644 424.228 122.938 423.645 122.356C423.061 121.774 422.366 121.484 421.547 121.484H414.933C414.669 121.484 414.544 121.359 414.544 121.096V116.388C414.544 116.125 414.669 116 414.933 116H423.339C424.145 116 424.84 115.709 425.409 115.128C425.979 114.546 426.271 113.854 426.271 113.037C426.271 112.22 425.979 111.541 425.409 110.946C424.84 110.364 424.145 110.073 423.339 110.073H410.792C409.861 110.073 409.055 110.406 408.388 111.07C407.721 111.735 407.388 112.524 407.388 113.466V136.37C407.388 137.311 407.721 138.1 408.388 138.765C409.055 139.43 409.861 139.762 410.792 139.762V139.721Z" fill="white"/>
<path d="M437.886 126.053L441.721 127.646C441.819 127.701 441.999 127.77 442.235 127.881C443.597 128.449 444.542 128.933 445.084 129.321C445.626 129.709 445.904 130.277 445.904 130.997C445.904 131.828 445.584 132.478 444.931 132.922C444.278 133.379 443.319 133.6 442.041 133.6C440.582 133.6 439.04 133.171 437.428 132.312C436.831 131.98 436.177 131.8 435.469 131.8C435.288 131.8 435.108 131.814 434.927 131.841C434.038 131.938 433.329 132.34 432.773 133.005C432.273 133.572 432.037 134.237 432.037 134.985V135.331C432.134 136.217 432.565 136.882 433.287 137.311C435.941 138.89 438.817 139.693 441.888 139.693C445.348 139.693 448.113 138.793 450.155 136.979C452.198 135.179 453.226 132.991 453.226 130.415C453.226 126.552 451.267 123.824 447.363 122.273L443.653 120.791C443.555 120.736 443.403 120.694 443.222 120.639C442.597 120.376 442.138 120.196 441.833 120.071C441.527 119.96 441.166 119.78 440.735 119.559C440.304 119.337 439.998 119.143 439.818 118.949C439.637 118.769 439.47 118.548 439.332 118.313C439.193 118.063 439.123 117.786 439.123 117.482C439.123 116.706 439.443 116.097 440.068 115.654C440.693 115.211 441.569 114.989 442.68 114.989C443.986 114.989 445.209 115.266 446.362 115.806C446.876 116.069 447.446 116.194 448.043 116.194C448.252 116.194 448.46 116.166 448.669 116.111C449.475 116.014 450.114 115.654 450.586 115.058C451.059 114.518 451.295 113.895 451.295 113.189C451.295 113.092 451.295 112.981 451.253 112.87C451.17 112.067 450.808 111.458 450.155 111.043C447.891 109.616 445.403 108.896 442.694 108.896C439.568 108.896 436.983 109.755 434.955 111.486C432.926 113.217 431.912 115.335 431.912 117.856C431.912 119.85 432.482 121.539 433.607 122.896C434.746 124.267 436.177 125.292 437.928 125.998L437.886 126.053Z" fill="white"/>
<path d="M462.674 126.053L466.509 127.646C466.606 127.701 466.787 127.77 467.023 127.881C468.385 128.449 469.33 128.933 469.872 129.321C470.414 129.709 470.691 130.277 470.691 130.997C470.691 131.828 470.372 132.478 469.719 132.922C469.066 133.379 468.107 133.6 466.829 133.6C465.37 133.6 463.828 133.171 462.216 132.312C461.618 131.98 460.965 131.8 460.257 131.8C460.076 131.8 459.895 131.814 459.715 131.841C458.826 131.938 458.117 132.34 457.561 133.005C457.061 133.572 456.825 134.237 456.825 134.985V135.331C456.922 136.217 457.339 136.882 458.075 137.311C460.729 138.89 463.605 139.693 466.676 139.693C470.136 139.693 472.901 138.793 474.943 136.979C476.986 135.179 478.014 132.991 478.014 130.415C478.014 126.552 476.055 123.824 472.15 122.273L468.441 120.791C468.343 120.736 468.19 120.694 468.01 120.639C467.385 120.376 466.926 120.196 466.62 120.071C466.315 119.96 465.953 119.78 465.523 119.559C465.092 119.337 464.786 119.143 464.606 118.949C464.425 118.769 464.258 118.548 464.119 118.313C463.98 118.063 463.911 117.786 463.911 117.482C463.911 116.706 464.231 116.097 464.856 115.654C465.481 115.211 466.356 114.989 467.468 114.989C468.774 114.989 469.997 115.266 471.15 115.806C471.664 116.069 472.234 116.194 472.831 116.194C473.04 116.194 473.248 116.166 473.456 116.111C474.262 116.014 474.902 115.654 475.374 115.058C475.846 114.518 476.083 113.895 476.083 113.189C476.083 113.092 476.083 112.981 476.041 112.87C475.957 112.067 475.596 111.458 474.943 111.043C472.678 109.616 470.191 108.896 467.482 108.896C464.356 108.896 461.771 109.755 459.743 111.486C457.714 113.217 456.7 115.335 456.7 117.856C456.7 119.85 457.269 121.539 458.395 122.896C459.534 124.267 460.965 125.292 462.716 125.998L462.674 126.053Z" fill="white"/>
<path d="M316.462 139.721H316.809C317.754 139.721 318.546 139.388 319.213 138.724C319.88 138.059 320.214 137.27 320.214 136.328V128.767C320.214 128.504 320.339 128.38 320.603 128.38H327.411C328.245 128.38 328.953 128.089 329.523 127.507C330.093 126.926 330.384 126.219 330.384 125.402C330.384 124.585 330.093 123.893 329.523 123.311C328.953 122.744 328.245 122.453 327.411 122.453H320.603C320.339 122.453 320.214 122.328 320.214 122.065V116.332C320.214 116.069 320.339 115.945 320.603 115.945H329.12C329.926 115.945 330.621 115.654 331.19 115.072C331.76 114.491 332.052 113.798 332.052 112.981C332.052 112.164 331.76 111.486 331.19 110.89C330.621 110.309 329.926 110.018 329.12 110.018H316.448C315.517 110.018 314.711 110.35 314.044 111.015C313.377 111.68 313.044 112.469 313.044 113.41V136.314C313.044 137.256 313.377 138.045 314.044 138.71C314.711 139.374 315.517 139.707 316.448 139.707L316.462 139.721Z" fill="white"/>
<path d="M340.625 139.721H340.972C341.917 139.721 342.709 139.388 343.376 138.724C344.043 138.059 344.376 137.27 344.376 136.328V113.424C344.376 112.483 344.043 111.693 343.376 111.029C342.709 110.364 341.903 110.032 340.972 110.032H340.625C339.694 110.032 338.888 110.364 338.221 111.029C337.554 111.693 337.221 112.483 337.221 113.424V136.328C337.221 137.27 337.554 138.059 338.221 138.724C338.888 139.388 339.694 139.721 340.625 139.721Z" fill="white"/>
<path d="M351.879 115.958H356.603C356.867 115.958 356.992 116.083 356.992 116.346V136.328C356.992 137.27 357.312 138.059 357.965 138.724C358.618 139.388 359.424 139.721 360.383 139.721H360.73C361.675 139.721 362.467 139.388 363.134 138.724C363.801 138.059 364.134 137.27 364.134 136.328V116.346C364.134 116.083 364.259 115.958 364.523 115.958H369.247C370.053 115.958 370.748 115.668 371.346 115.086C371.929 114.504 372.221 113.812 372.221 112.995C372.221 112.178 371.929 111.5 371.346 110.904C370.762 110.323 370.067 110.032 369.247 110.032H351.851C351.046 110.032 350.351 110.323 349.781 110.904C349.212 111.486 348.92 112.178 348.92 112.995C348.92 113.812 349.212 114.491 349.781 115.086C350.351 115.668 351.046 115.958 351.851 115.958H351.879Z" fill="white"/>
<path d="M397.078 110.032C396.133 110.032 395.341 110.364 394.674 111.029C394.007 111.693 393.674 112.483 393.674 113.424V119.85C393.674 122.134 393.994 125.762 394.619 130.72C394.647 130.803 394.619 130.831 394.563 130.831C394.508 130.831 394.452 130.789 394.424 130.72L391.534 124.253L385.712 113.037C385.212 112.123 384.518 111.403 383.614 110.849C382.711 110.309 381.739 110.032 380.697 110.032H380.224C379.279 110.032 378.487 110.364 377.82 111.029C377.153 111.693 376.82 112.483 376.82 113.424V136.328C376.82 137.27 377.153 138.059 377.82 138.724C378.487 139.388 379.293 139.721 380.224 139.721C381.155 139.721 381.961 139.388 382.628 138.724C383.295 138.059 383.628 137.27 383.628 136.328V129.861C383.628 128.795 383.587 127.673 383.489 126.51C383.392 125.347 383.253 123.893 383.059 122.19C382.864 120.473 382.753 119.406 382.725 118.991C382.725 118.908 382.753 118.88 382.822 118.88C382.892 118.88 382.934 118.922 382.961 118.991L385.81 125.375L391.632 136.716C392.104 137.63 392.785 138.35 393.688 138.904C394.591 139.444 395.564 139.721 396.606 139.721H397.078C398.023 139.721 398.815 139.388 399.482 138.724C400.149 138.059 400.482 137.27 400.482 136.328V113.424C400.482 112.483 400.149 111.693 399.482 111.029C398.815 110.364 398.009 110.032 397.078 110.032Z" fill="white"/>
</g>
<defs>
<clipPath id="clip0_8_232">
<rect width="478" height="232" fill="white"/>
</clipPath>
</defs>
</svg>
